<svg version="1.1" xmlns="http://www.w3.org/2000/svg" xmlns:xlink="http://www.w3.org/1999/xlink">
  <symbol id="cart-dark" viewBox="0 0 12 12">
    <path fill="#000" d="M11.864 3.017a.429.429 0 0 0-.327-.154H9.225V4.09c0 .563-.484 1.022-1.08 1.022-.594 0-1.078-.458-1.078-1.022V2.863H4.909V4.09c0 .563-.485 1.022-1.08 1.022-.595 0-1.078-.458-1.078-1.022V2.863H.438a.43.43 0 0 0-.327.154.472.472 0 0 0-.108.358l.776 7.134c.015.806.642 1.455 1.411 1.455h7.595c.77 0 1.396-.649 1.411-1.455l.776-7.134a.476.476 0 0 0-.108-.358z"/><path fill="#000" d="M3.829 4.499c.239 0 .433-.184.433-.409V1.84c0-.632.672-1.022 1.295-1.022h1.079c.655 0 1.078.401 1.078 1.022v2.25c0 .225.194.409.431.409.239 0 .433-.184.433-.409V1.84C8.577.773 7.761 0 6.636 0H5.557c-1.19 0-2.159.826-2.159 1.84v2.25c0 .225.194.409.431.409z"/>
  </symbol>

  <symbol id="cart-bright" viewBox="0 0 12 12">
    <path fill="#ffc600" d="M11.864 3.017a.429.429 0 0 0-.327-.154H9.225V4.09c0 .563-.484 1.022-1.08 1.022-.594 0-1.078-.458-1.078-1.022V2.863H4.909V4.09c0 .563-.485 1.022-1.08 1.022-.595 0-1.078-.458-1.078-1.022V2.863H.438a.43.43 0 0 0-.327.154.472.472 0 0 0-.108.358l.776 7.134c.015.806.642 1.455 1.411 1.455h7.595c.77 0 1.396-.649 1.411-1.455l.776-7.134a.476.476 0 0 0-.108-.358z"/><path fill="#ffc600" d="M3.829 4.499c.239 0 .433-.184.433-.409V1.84c0-.632.672-1.022 1.295-1.022h1.079c.655 0 1.078.401 1.078 1.022v2.25c0 .225.194.409.431.409.239 0 .433-.184.433-.409V1.84C8.577.773 7.761 0 6.636 0H5.557c-1.19 0-2.159.826-2.159 1.84v2.25c0 .225.194.409.431.409z"/>
  </symbol>

  <symbol id="compare-dark" viewBox="0 0 10 10">
    <path fill="#000000" d="M8 2h1.984v8H8zM0 3h1.984v7H0zM4 0h2v10H4z"/>
  </symbol>

  <symbol id="compare-bright" viewBox="0 0 10 10">
    <path fill="#ffc600" d="M8 2h1.984v8H8zM0 3h1.984v7H0zM4 0h2v10H4z"/>
  </symbol>

  <symbol id="fb" viewBox="0 0 32 32">
    <path fill="#FFF" d="M16 0C7.164 0 0 7.163 0 16s7.164 16 16 16c8.837 0 16-7.164 16-16S24.837 0 16 0zm4.062 9.455h-3.021v3.444h3.021v3.445h-3.021v8.61H14.02v-8.61H11v-3.445h3.021V9.455c0-1.902 1.353-3.445 3.021-3.445h3.021v3.445z"/>
  </symbol>

  <symbol id="icon-cross" viewBox="0 0 55 55">
    <path fill="#F0C52E" d="M27.5 0C12.312 0 0 12.312 0 27.5S12.312 55 27.5 55 55 42.688 55 27.5 42.688 0 27.5 0zm11.476 37.072l-1.486 1.426-9.99-9.574-9.987 9.574-1.488-1.426 9.988-9.573-9.987-9.573 1.487-1.425 9.987 9.573 9.988-9.573 1.487 1.425-9.989 9.574 9.99 9.572z"/>
  </symbol>
  
  <symbol id="insta" viewBox="0 0 32 32">
    <g fill="#FFF"><path d="M20.916 16a4.938 4.938 0 1 1-9.877 0c0-.394.051-.773.138-1.14h-.897v6.838h11.396V14.86h-.897c.086.367.137.746.137 1.14z"/><path d="M15.978 18.659c1.466 0 2.659-1.193 2.659-2.659s-1.193-2.659-2.659-2.659c-1.466 0-2.659 1.193-2.659 2.659s1.192 2.659 2.659 2.659zM18.637 10.302h3.039v3.039h-3.039z"/><path d="M16 0C7.164 0 0 7.164 0 16c0 8.837 7.164 16 16 16 8.837 0 16-7.163 16-16 0-8.836-7.163-16-16-16zm7.955 21.698a2.285 2.285 0 0 1-2.279 2.279H10.279A2.285 2.285 0 0 1 8 21.698V10.302a2.286 2.286 0 0 1 2.279-2.279h11.396a2.286 2.286 0 0 1 2.279 2.279v11.396z"/></g>
  </symbol>
  
  <symbol id="nav-arrow" viewBox="0 0 4 7">
    <path d="M3.83 3.132L.861.144a.5.5 0 0 0-.713 0 .508.508 0 0 0 0 .718l2.611 2.629L.148 6.12a.51.51 0 0 0 0 .72.5.5 0 0 0 .713 0L3.83 3.852a.51.51 0 0 0 .147-.36.507.507 0 0 0-.147-.36z"/>
  </symbol>
  
  <symbol id="icon-plus" viewBox="0 0 16 16">
	<path fill="#272525" d="M16 7H9V0H7v7H0v2h7v7h2V9h7z"/>
  </symbol>
  
  <symbol id="search" viewBox="0 0 16 16">
	<path d="M15.7 14.3l-3.104-3.104A6.979 6.979 0 0 0 14 7a7 7 0 1 0-7 7 6.963 6.963 0 0 0 4.193-1.404L14.3 15.7c.185.184.38.3.7.3a1 1 0 0 0 1-1 .93.93 0 0 0-.3-.7zM2 7c0-2.762 2.238-5 5-5s5 2.238 5 5-2.238 5-5 5-5-2.238-5-5z"/>
  </symbol>
  
  <symbol id="twitter" viewBox="0 0 32 32">
	<path fill="#FFF" d="M16 0C7.164 0 0 7.164 0 16c0 8.837 7.164 16 16 16 8.837 0 16-7.163 16-16 0-8.836-7.163-16-16-16zm7.944 12.809c-.251 6.516-3.463 10.832-10.992 10.702h-.486c-.447 0-4.543-.443-5.344-1.823 2.479.19 4.247-.406 5.12-1.136-1.048-.289-2.923-.461-3.251-2.848.384.104.618.221 1.299.113-1.307-.824-2.758-1.519-2.679-3.643.311.317 1.164.518 1.46.457-.768-.233-2.149-3.244-.974-4.781 1.984 1.79 4.075 3.482 7.804 3.643.227-2.214 1.24-3.699 3.168-4.325 1.84-.479 3.255.26 3.901 1.138.737-.224 1.453-.466 2.193-.685-.004.833-.569 1.463-.935 1.709.747.165 1.423-.475 1.423-.475-.184.963-1.094 1.725-1.707 1.954z"/>
  </symbol>
  
  <symbol id="user-dark" viewBox="0 0 13 12">
	<path fill="#000" d="M.032 12h12.937c-.163-2.643-2.074-4.837-4.671-5.543a3.47 3.47 0 0 0 1.687-2.972 3.485 3.485 0 0 0-6.97 0c0 1.264.68 2.361 1.688 2.972C2.106 7.163.194 9.357.032 12z"/>
  </symbol>
  
  <symbol id="user-bright" viewBox="0 0 13 12">
	<path fill="#ffc600" d="M.032 12h12.937c-.163-2.643-2.074-4.837-4.671-5.543a3.47 3.47 0 0 0 1.687-2.972 3.485 3.485 0 0 0-6.97 0c0 1.264.68 2.361 1.688 2.972C2.106 7.163.194 9.357.032 12z"/>
  </symbol>
  
  <symbol id="check-off" viewBox="0 0 23 23">
	<path fill="#000" d="M20 2c.542 0 1 .458 1 1v17c0 .542-.458 1-1 1H3c-.542 0-1-.458-1-1V3c0-.542.458-1 1-1h17m0-2H3C1.35 0 0 1.35 0 3v17c0 1.65 1.35 3 3 3h17c1.65 0 3-1.35 3-3V3c0-1.65-1.35-3-3-3z"/>
  </symbol>
  
  <symbol id="check-on" viewBox="0 0 27 23">
	<path fill="#000" d="M7.285 7.486l-2.829 2.829 7.783 7.783L26.171 4.166l-2.828-2.829-11.104 11.102z"/><path fill="#000" d="M21 20c0 .542-.458 1-1 1H3c-.542 0-1-.458-1-1V3c0-.542.458-1 1-1h16.908L21.493.415A2.96 2.96 0 0 0 20 0H3C1.35 0 0 1.35 0 3v17c0 1.65 1.35 3 3 3h17c1.65 0 3-1.35 3-3v-9.829l-2 2V20z"/>
  </symbol>

  <view id="cart-dark-view" viewBox="0 0 12 12" />
  <view id="cart-bright-view" viewBox="0 80 12 12" />
  <view id="compare-dark-view" viewBox="0 140 10 10" />
  <view id="compare-bright-view" viewBox="0 200 10 10" />
  <view id="fb-view" viewBox="0 260 32 32" />
  <view id="icon-cross-view" viewBox="0 320 55 55" />
  <view id="insta-view" viewBox="0 380 32 32" />
  <view id="nav-arrow-view" viewBox="0 440 4 7" />
  <view id="icon-plus-view" viewBox="0 500 16 16" />
  <view id="search-view" viewBox="0 560 16 16" />
  <view id="twitter-view" viewBox="0 620 32 32" />
  <view id="user-dark-view" viewBox="0 680 13 12" />
  <view id="user-bright-view" viewBox="0 740 13 12" />
  <view id="check-off-view" viewBox="0 800 23 23" />
  <view id="check-on-view" viewBox="0 860 27 23" />
  

  <use xlink:href="#cart-dark" width="12" height="12" x="0" y="0"></use>
  <use xlink:href="#cart-bright" width="12" height="12" x="0" y="80"></use>
  <use xlink:href="#compare-dark" width="10" height="10" x="0" y="140"></use>
  <use xlink:href="#compare-bright" width="10" height="10" x="0" y="200"></use>
  <use xlink:href="#fb" width="32" height="32" x="0" y="260"></use>
  <use xlink:href="#icon-cross" width="55" height="55" x="0" y="320"></use>
  <use xlink:href="#insta" width="32" height="32" x="0" y="380"></use>
  <use xlink:href="#nav-arrow" width="4" height="7" x="0" y="440"></use>
  <use xlink:href="#icon-plus" width="16" height="16" x="0" y="500"></use>
  <use xlink:href="#search" width="16" height="16" x="0" y="560"></use>
  <use xlink:href="#twitter" width="32" height="32" x="0" y="620"></use>
  <use xlink:href="#user-dark" width="13" height="12" x="0" y="680"></use>
  <use xlink:href="#user-bright" width="13" height="12" x="0" y="740"></use>
  <use xlink:href="#check-off" width="23" height="23" x="0" y="800"></use>
  <use xlink:href="#check-on" width="27" height="23" x="0" y="860"></use>
</svg>
